<svg width="248" height="248" viewBox="0 0 248 248" fill="none" xmlns="http://www.w3.org/2000/svg">
<g filter="url(#filter0_d_38_101)">
<circle cx="124" cy="120" r="120" fill="white"/>
<mask id="path-2-outside-1_38_101" maskUnits="userSpaceOnUse" x="130.866" y="71.9271" width="90.8058" height="97.593" fill="black">
<rect fill="white" x="130.866" y="71.9271" width="90.8058" height="97.593"/>
<path d="M198.332 73.6325L217.544 73.0569L209.551 132.361C208.655 139.019 206.3 144.892 202.485 149.981C198.671 155.069 193.743 159.095 187.704 162.059C181.663 164.993 174.872 166.573 167.329 166.799C159.786 167.025 153.385 165.84 148.126 163.245C142.867 160.619 139.009 156.856 136.553 151.956C134.096 147.056 133.316 141.277 134.212 134.618L142.205 75.3143L161.417 74.7387L153.597 132.394C153.168 135.871 153.526 138.939 154.672 141.599C155.847 144.258 157.715 146.319 160.275 147.781C162.835 149.244 165.964 149.92 169.662 149.81C173.389 149.698 176.738 148.828 179.709 147.199C182.709 145.57 185.146 143.38 187.017 140.63C188.918 137.879 190.083 134.765 190.512 131.288L198.332 73.6325Z"/>
</mask>
<path d="M198.332 73.6325L217.544 73.0569L209.551 132.361C208.655 139.019 206.3 144.892 202.485 149.981C198.671 155.069 193.743 159.095 187.704 162.059C181.663 164.993 174.872 166.573 167.329 166.799C159.786 167.025 153.385 165.84 148.126 163.245C142.867 160.619 139.009 156.856 136.553 151.956C134.096 147.056 133.316 141.277 134.212 134.618L142.205 75.3143L161.417 74.7387L153.597 132.394C153.168 135.871 153.526 138.939 154.672 141.599C155.847 144.258 157.715 146.319 160.275 147.781C162.835 149.244 165.964 149.92 169.662 149.81C173.389 149.698 176.738 148.828 179.709 147.199C182.709 145.57 185.146 143.38 187.017 140.63C188.918 137.879 190.083 134.765 190.512 131.288L198.332 73.6325Z" fill="black"/>
<path d="M198.332 73.6325L198.302 72.633L197.455 72.6584L197.341 73.4981L198.332 73.6325ZM217.544 73.0569L218.535 73.1904L218.693 72.022L217.514 72.0573L217.544 73.0569ZM209.551 132.361L208.56 132.227L208.56 132.227L209.551 132.361ZM202.485 149.981L203.285 150.58L203.285 150.58L202.485 149.981ZM187.704 162.059L188.141 162.958L188.144 162.956L187.704 162.059ZM148.126 163.245L147.68 164.139L147.684 164.141L148.126 163.245ZM136.553 151.956L135.659 152.404L135.659 152.404L136.553 151.956ZM134.212 134.618L133.221 134.484L133.221 134.485L134.212 134.618ZM142.205 75.3143L142.175 74.3148L141.328 74.3402L141.214 75.1808L142.205 75.3143ZM161.417 74.7387L162.408 74.8731L162.567 73.7038L161.387 73.7391L161.417 74.7387ZM153.597 132.394L152.606 132.26L152.604 132.272L153.597 132.394ZM154.672 141.599L153.753 141.994L153.757 142.003L154.672 141.599ZM160.275 147.781L159.779 148.65L159.779 148.65L160.275 147.781ZM179.709 147.199L179.232 146.32L179.228 146.322L179.709 147.199ZM187.017 140.63L186.194 140.061L186.19 140.067L187.017 140.63ZM190.512 131.288L189.521 131.153L189.52 131.165L190.512 131.288ZM198.362 74.6321L217.574 74.0564L217.514 72.0573L198.302 72.633L198.362 74.6321ZM216.553 72.9233L208.56 132.227L210.542 132.494L218.535 73.1904L216.553 72.9233ZM208.56 132.227C207.686 138.726 205.392 144.437 201.685 149.381L203.285 150.58C207.208 145.348 209.625 139.312 210.542 132.494L208.56 132.227ZM201.685 149.381C197.971 154.335 193.17 158.262 187.263 161.161L188.144 162.956C194.317 159.927 199.37 155.802 203.285 150.58L201.685 149.381ZM187.267 161.159C181.368 164.025 174.718 165.577 167.299 165.8L167.359 167.799C175.025 167.569 181.958 165.962 188.141 162.958L187.267 161.159ZM167.299 165.8C159.874 166.022 153.645 164.853 148.569 162.348L147.684 164.141C153.125 166.827 159.698 168.028 167.359 167.799L167.299 165.8ZM148.573 162.35C143.492 159.814 139.799 156.201 137.447 151.508L135.659 152.404C138.219 157.512 142.241 161.425 147.68 164.139L148.573 162.35ZM137.447 151.508C135.099 146.825 134.328 141.256 135.203 134.751L133.221 134.485C132.305 141.297 133.094 147.287 135.659 152.404L137.447 151.508ZM135.203 134.752L143.196 75.4479L141.214 75.1808L133.221 134.484L135.203 134.752ZM142.235 76.3139L161.447 75.7382L161.387 73.7391L142.175 74.3148L142.235 76.3139ZM160.426 74.6043L152.606 132.26L154.588 132.528L162.408 74.8731L160.426 74.6043ZM152.604 132.272C152.158 135.888 152.524 139.141 153.754 141.994L155.59 141.203C154.528 138.738 154.178 135.854 154.589 132.516L152.604 132.272ZM153.757 142.003C155.02 144.86 157.036 147.083 159.779 148.65L160.771 146.913C158.394 145.555 156.674 143.655 155.587 141.195L153.757 142.003ZM159.779 148.65C162.535 150.225 165.857 150.924 169.692 150.809L169.632 148.81C166.072 148.917 163.136 148.264 160.771 146.913L159.779 148.65ZM169.692 150.809C173.56 150.693 177.067 149.788 180.19 148.076L179.228 146.322C176.409 147.868 173.217 148.703 169.632 148.81L169.692 150.809ZM180.186 148.078C183.323 146.375 185.88 144.078 187.844 141.192L186.19 140.067C184.411 142.682 182.096 144.765 179.232 146.32L180.186 148.078ZM187.84 141.198C189.837 138.308 191.057 135.039 191.505 131.41L189.52 131.165C189.11 134.49 187.999 137.449 186.195 140.061L187.84 141.198ZM191.503 131.422L199.323 73.767L197.341 73.4981L189.521 131.153L191.503 131.422Z" fill="black" mask="url(#path-2-outside-1_38_101)"/>
<rect x="31.5" y="146.667" width="79" height="14" fill="black" stroke="black"/>
<path d="M31.5 98.0854V85.0638C73.4235 90.0933 90.4122 88.5427 110.5 79.7664V92.5023C98.714 98.5086 88.3842 101.665 76.3134 102.446C64.2212 103.229 50.3582 101.63 31.5 98.0854Z" fill="black" stroke="black"/>
<path d="M36 115.5L33.5 117L31 118.5V134L31.5 133.5L33.5 132.5L36 131L39 130L43 129H46.5L48 129.5L50.5 130.5L52.5 131.5L55.5 133.5L57.5 134.5L59.5 135H64L66.5 134.5L70.5 132.5L73.5 131L77 129.5L80 129H83L85.5 129.5L88.5 131L91.5 133L94.5 134.5L97 135H101H102L104 134.5L106 133.5L108 132.5L109.5 131.5L111 130.5V114L110.5 114.5L110 115L109.5 115.5L109 116L108 117L107 118L105.5 118.5L104.5 119L102.5 119.5L101 120H99.5H97L95.5 119.5L94 119L92.5 118.5L91.5 118L90.5 117.5L89.5 116.5L88 115.5L86.5 115L85.5 114.5L84 114H83H79.5H78.5L77 114.5L75.5 115L73.5 116L71.5 117L66 119.5L64 120H60.5H59L58 119.5L55.5 118.5L50 115.5L47.5 114.5L46 114H42L39.5 114.5L36 115.5Z" fill="black" stroke="black"/>
<path d="M58.7764 120.947L58.9018 121.01L59.0415 120.998L65.0415 120.498L65.1248 120.491L65.2014 120.458L77.6051 115H83.9384L85.8458 115.477L88.219 116.426L89.6464 117.854L89.7215 117.929L89.8205 117.967L96.3205 120.467L96.4072 120.5H96.5H100H100.05L100.098 120.49L105.098 119.49L105.143 119.481L105.186 119.464L107.686 118.464L107.803 118.417L107.884 118.32L110.234 115.5H110.5V119V129.77L107.242 132.563L103.388 134.008L98.0446 134.494L92.7009 133.037L86.262 129.074L86.1621 129.013L86.0453 129.002L80.5453 128.502L80.4775 128.496L80.4106 128.508L74.9106 129.508L74.8481 129.519L74.7905 129.546L68.2905 132.546L68.2834 132.549L68.2764 132.553L64.382 134.5H60.07L56.7035 133.538L50.262 129.574L50.1962 129.534L50.1213 129.515L46.1213 128.515L46.0616 128.5H46H42.5H42.4384L42.3787 128.515L38.3787 129.515L38.3366 129.525L38.2969 129.543L33.8055 131.539L32 132.262V119.021L36.2117 116.456L42.0505 114.51L45.8889 114.99L48.8082 115.963L58.7764 120.947Z" fill="black" stroke="black"/>
<path d="M134.572 136.205L139.887 75.8599L143.064 74.6928L148.384 130.187L134.572 136.205Z" fill="black" stroke="black"/>
<path d="M159 75H158.984L158.969 75.001L143.618 75.9604L143.91 74.5H160.941L160.691 75H159Z" fill="black" stroke="black"/>
</g>
<defs>
<filter id="filter0_d_38_101" x="0" y="0" width="248" height="248" filterUnits="userSpaceOnUse" color-interpolation-filters="sRGB">
<feFlood flood-opacity="0" result="BackgroundImageFix"/>
<feColorMatrix in="SourceAlpha" type="matrix" values="0 0 0 0 0 0 0 0 0 0 0 0 0 0 0 0 0 0 127 0" result="hardAlpha"/>
<feOffset dy="4"/>
<feGaussianBlur stdDeviation="2"/>
<feComposite in2="hardAlpha" operator="out"/>
<feColorMatrix type="matrix" values="0 0 0 0 0 0 0 0 0 0 0 0 0 0 0 0 0 0 0.25 0"/>
<feBlend mode="normal" in2="BackgroundImageFix" result="effect1_dropShadow_38_101"/>
<feBlend mode="normal" in="SourceGraphic" in2="effect1_dropShadow_38_101" result="shape"/>
</filter>
</defs>
</svg>
